<svg width="720" height="720" viewBox="0 0 720 720" fill="none" xmlns="http://www.w3.org/2000/svg">
  <rect width="720" height="720" rx="48" fill="#F7F3E8"/>
  <circle cx="568" cy="128" r="72" fill="#D2E7DC"/>
  <circle cx="124" cy="614" r="54" fill="#E7C97F"/>
  <path d="M126 170C126 145.699 145.699 126 170 126H552C576.301 126 596 145.699 596 170V504C596 528.301 576.301 548 552 548H170C145.699 548 126 528.301 126 504V170Z" fill="#183B34"/>
  <path d="M154 198C154 179.222 169.222 164 188 164H534C552.778 164 568 179.222 568 198V480C568 498.778 552.778 514 534 514H188C169.222 514 154 498.778 154 480V198Z" fill="#F8F8F5"/>
  <rect x="186" y="198" width="350" height="68" rx="20" fill="#EDF4EF"/>
  <rect x="208" y="221" width="122" height="12" rx="6" fill="#244B43"/>
  <rect x="208" y="242" width="82" height="9" rx="4.5" fill="#82A996"/>
  <rect x="432" y="216" width="82" height="30" rx="15" fill="#DDAF3B"/>
  <rect x="186" y="288" width="162" height="138" rx="24" fill="#21453E"/>
  <rect x="206" y="312" width="58" height="10" rx="5" fill="#A7C4B5"/>
  <rect x="206" y="334" width="92" height="32" rx="16" fill="#F7F3E8"/>
  <rect x="206" y="382" width="18" height="24" rx="9" fill="#E7C97F"/>
  <rect x="232" y="366" width="18" height="40" rx="9" fill="#DDAF3B"/>
  <rect x="258" y="350" width="18" height="56" rx="9" fill="#8EB69F"/>
  <rect x="284" y="326" width="18" height="80" rx="9" fill="#F2E3B2"/>
  <rect x="368" y="288" width="168" height="64" rx="24" fill="#F5E4B4"/>
  <rect x="392" y="310" width="72" height="10" rx="5" fill="#183B34"/>
  <rect x="392" y="329" width="42" height="8" rx="4" fill="#7D6F4C"/>
  <circle cx="494" cy="320" r="18" fill="#244B43"/>
  <path d="M484 321H504" stroke="#F8F8F5" stroke-width="5" stroke-linecap="round"/>
  <path d="M494 311V331" stroke="#F8F8F5" stroke-width="5" stroke-linecap="round"/>
  <rect x="368" y="366" width="168" height="146" rx="24" fill="#EFF3EE"/>
  <rect x="392" y="388" width="94" height="10" rx="5" fill="#244B43"/>
  <rect x="392" y="410" width="62" height="8" rx="4" fill="#8AA594"/>
  <path d="M390 468C410.615 446.906 423.922 436.359 441.203 436.359C458.484 436.359 471.791 445.896 489.072 463.979C506.353 482.063 519.66 495.62 540.275 495.62" stroke="#21453E" stroke-width="12" stroke-linecap="round" stroke-linejoin="round"/>
  <circle cx="442" cy="436" r="10" fill="#DDAF3B"/>
  <circle cx="489" cy="464" r="10" fill="#21453E"/>
  <circle cx="538" cy="496" r="10" fill="#8EB69F"/>
  <path d="M182 592C182 576.536 194.536 564 210 564H510C525.464 564 538 576.536 538 592V594H182V592Z" fill="#D8E7DE"/>
  <rect x="226" y="600" width="268" height="18" rx="9" fill="#21453E" fill-opacity="0.18"/>
</svg>
